<svg xmlns="http://www.w3.org/2000/svg" viewBox="0 0 8 11" shape-rendering="crispEdges">
  <rect width="8" height="11" fill="#0b1020"/>
  <rect x="1" y="0" width="6" height="1" fill="#5a3825"/>
  <rect x="0" y="1" width="8" height="1" fill="#5a3825"/>
  <rect x="1" y="2" width="6" height="1" fill="#f4c28c"/>
  <rect x="1" y="3" width="1" height="1" fill="#f4c28c"/>
  <rect x="2" y="3" width="1" height="1" fill="#22223a"/>
  <rect x="3" y="3" width="2" height="1" fill="#f4c28c"/>
  <rect x="5" y="3" width="1" height="1" fill="#22223a"/>
  <rect x="6" y="3" width="1" height="1" fill="#f4c28c"/>
  <rect x="1" y="4" width="6" height="1" fill="#f4c28c"/>
  <rect x="2" y="5" width="4" height="1" fill="#3b5bdb"/>
  <rect x="1" y="6" width="6" height="1" fill="#3b5bdb"/>
  <rect x="0" y="7" width="1" height="1" fill="#f4c28c"/>
  <rect x="1" y="7" width="6" height="1" fill="#3b5bdb"/>
  <rect x="7" y="7" width="1" height="1" fill="#f4c28c"/>
  <rect x="1" y="8" width="6" height="1" fill="#f1c40f"/>
  <rect x="1" y="9" width="2" height="1" fill="#26307a"/>
  <rect x="4" y="9" width="2" height="1" fill="#26307a"/>
  <rect x="0" y="10" width="3" height="1" fill="#4a2e1a"/>
  <rect x="4" y="10" width="3" height="1" fill="#4a2e1a"/>
</svg>
